<?xml version="1.0" encoding="UTF-8" standalone="no"?>
<!-- Created with Inkscape (http://www.inkscape.org/) -->

<svg
   version="1.1"
   id="svg588"
   width="1160"
   height="362.66666"
   viewBox="0 0 1160 362.66666"
   sodipodi:docname="red plug horizontal.svg"
   inkscape:version="1.2.2 (b0a84865, 2022-12-01)"
   xmlns:inkscape="http://www.inkscape.org/namespaces/inkscape"
   xmlns:sodipodi="http://sodipodi.sourceforge.net/DTD/sodipodi-0.dtd"
   xmlns="http://www.w3.org/2000/svg"
   xmlns:svg="http://www.w3.org/2000/svg">
  <defs
     id="defs592">
    <clipPath
       clipPathUnits="userSpaceOnUse"
       id="clipPath604">
      <path
         d="M 0,272 H 870 V 0 H 0 Z"
         id="path602" />
    </clipPath>
  </defs>
  <sodipodi:namedview
     id="namedview590"
     pagecolor="#505050"
     bordercolor="#ffffff"
     borderopacity="1"
     inkscape:showpageshadow="0"
     inkscape:pageopacity="0"
     inkscape:pagecheckerboard="1"
     inkscape:deskcolor="#505050"
     showgrid="false"
     inkscape:zoom="0.65073532"
     inkscape:cx="579.34461"
     inkscape:cy="181.33333"
     inkscape:window-width="1419"
     inkscape:window-height="456"
     inkscape:window-x="0"
     inkscape:window-y="25"
     inkscape:window-maximized="0"
     inkscape:current-layer="g596">
    <inkscape:page
       x="0"
       y="0"
       id="page594"
       width="1160"
       height="362.66666" />
  </sodipodi:namedview>
  <g
     id="g596"
     inkscape:groupmode="layer"
     inkscape:label="Page 1"
     transform="matrix(1.3333333,0,0,-1.3333333,0,362.66667)">
    <g
       id="g598">
      <g
         id="g600"
         clip-path="url(#clipPath604)">
        <g
           id="g606"
           transform="translate(293.2339,175.8047)">
          <path
             d="m 0,0 h 20.333 c 3.859,0 7.182,-0.808 9.965,-2.424 2.782,-1.616 4.915,-3.817 6.396,-6.598 1.482,-2.784 2.222,-5.971 2.222,-9.561 0,-3.682 -0.74,-6.914 -2.222,-9.695 -1.481,-2.784 -3.614,-4.961 -6.396,-6.531 -2.783,-1.572 -6.106,-2.357 -9.965,-2.357 H 0 Z m 37.771,-47.399 c 5.521,2.243 9.831,5.655 12.928,10.233 3.097,4.579 4.645,10.458 4.645,17.641 v 2.154 c 0,7.181 -1.527,13.062 -4.578,17.641 -3.053,4.578 -7.362,8.011 -12.927,10.301 -5.568,2.289 -12.119,3.433 -19.66,3.433 H 0 -5.251 -16.159 V -84.969 H 0 v 34.203 h 18.179 c 0.424,0 0.834,0.017 1.251,0.024 l 24.738,-34.227 h 19.256 l -27.469,36.893 c 0.615,0.215 1.225,0.436 1.816,0.677"
             style="fill:#000000;fill-opacity:1;fill-rule:nonzero;stroke:none"
             id="path608" />
        </g>
        <g
           id="g610"
           transform="translate(388.8408,149.2769)">
          <path
             d="m 0,0 c 3.141,2.155 7.046,3.232 11.715,3.232 4.488,0 8.214,-0.966 11.177,-2.895 2.962,-1.932 5.205,-4.669 6.733,-8.214 0.928,-2.16 1.571,-4.563 1.935,-7.205 H -8.725 c 0.382,2.235 0.955,4.3 1.723,6.195 C -5.477,-5.117 -3.144,-2.154 0,0 m 31.241,11.446 c -5.208,3.411 -11.716,5.117 -19.526,5.117 -6.015,0 -11.29,-1.056 -15.822,-3.165 -4.535,-2.11 -8.282,-4.938 -11.244,-8.483 -2.962,-3.547 -5.185,-7.54 -6.666,-11.984 -1.481,-4.444 -2.222,-9.046 -2.222,-13.803 v -2.558 c 0,-4.669 0.741,-9.224 2.222,-13.668 1.481,-4.444 3.704,-8.44 6.666,-11.985 2.962,-3.546 6.777,-6.396 11.446,-8.55 4.667,-2.155 10.143,-3.232 16.428,-3.232 5.834,0 11.042,0.989 15.621,2.962 4.578,1.974 8.369,4.802 11.378,8.484 3.007,3.68 5.003,7.989 5.992,12.927 H 30.836 c -0.719,-2.963 -2.692,-5.544 -5.924,-7.743 -3.232,-2.201 -7.362,-3.299 -12.389,-3.299 -5.028,0 -9.157,1.098 -12.388,3.299 -3.232,2.199 -5.612,5.205 -7.137,9.023 -1.15,2.871 -1.865,6.036 -2.149,9.493 h 56.012 v 6.329 c 0,6.282 -1.302,12.14 -3.905,17.572 -2.605,5.431 -6.51,9.851 -11.715,13.264"
             style="fill:#000000;fill-opacity:1;fill-rule:nonzero;stroke:none"
             id="path612" />
        </g>
        <g
           id="g614"
           transform="translate(507.7432,124.7695)">
          <path
             d="m 0,0 c 0,-4.669 -1.01,-8.731 -3.029,-12.187 -2.021,-3.457 -4.669,-6.083 -7.946,-7.877 -3.278,-1.797 -6.934,-2.693 -10.974,-2.693 -4.309,0 -8.17,1.01 -11.58,3.029 -3.413,2.02 -6.083,4.915 -8.013,8.686 -1.932,3.771 -2.895,8.214 -2.895,13.331 0,5.026 0.943,9.426 2.828,13.196 1.885,3.771 4.511,6.71 7.878,8.821 3.366,2.108 7.248,3.164 11.647,3.164 3.949,0 7.585,-0.854 10.907,-2.558 3.321,-1.707 6.014,-4.175 8.08,-7.407 C -1.033,14.273 0,10.369 0,5.79 Z m -0.538,27.916 c -2.615,4.159 -5.91,7.316 -9.898,9.451 -4.444,2.378 -9.449,3.569 -15.014,3.569 -5.207,0 -9.944,-0.966 -14.206,-2.895 -4.266,-1.932 -7.924,-4.602 -10.975,-8.013 -3.054,-3.412 -5.41,-7.384 -7.07,-11.917 -1.662,-4.534 -2.491,-9.405 -2.491,-14.61 V 0.942 c 0,-5.297 0.852,-10.189 2.558,-14.677 1.705,-4.491 4.152,-8.44 7.339,-11.85 3.186,-3.413 6.912,-6.06 11.177,-7.945 4.263,-1.885 8.999,-2.827 14.207,-2.827 5.474,0 10.503,1.19 15.081,3.568 4.579,2.377 8.326,6.08 11.244,11.109 0.464,0.8 0.882,1.648 1.279,2.518 v -14.772 h 12.524 v 98.3 H -0.538 Z"
             style="fill:#000000;fill-opacity:1;fill-rule:nonzero;stroke:none"
             id="path616" />
        </g>
        <g
           id="g618"
           transform="translate(628.7969,146.5166)">
          <path
             d="m 0,0 c -1.528,-2.918 -3.703,-5.208 -6.531,-6.868 -2.828,-1.662 -6.397,-2.491 -10.705,-2.491 h -17.776 v 38.512 h 17.776 c 4.308,0 7.877,-0.807 10.705,-2.424 C -3.703,25.114 -1.528,22.846 0,19.929 1.525,17.011 2.289,13.668 2.289,9.897 2.289,6.215 1.525,2.916 0,0 m 1.548,39.32 c -5.611,2.647 -12.502,3.972 -20.67,3.972 h -15.89 -2.693 -13.466 v -98.973 h 16.159 v 32.183 h 15.89 c 8.168,0 15.059,1.324 20.67,3.973 5.609,2.647 9.875,6.396 12.793,11.243 2.916,4.848 4.376,10.548 4.376,17.102 v 2.155 c 0,6.642 -1.46,12.365 -4.376,17.169 -2.918,4.801 -7.184,8.527 -12.793,11.176"
             style="fill:#000000;fill-opacity:1;fill-rule:nonzero;stroke:none"
             id="path620" />
        </g>
        <g
           id="g622"
           transform="translate(654.6494,189.1357)">
          <path
             d="M 0,0 V -12.119 H 9.561 V -98.3 H 25.45 V -12.119 0 H 9.561 Z"
             style="fill:#000000;fill-opacity:1;fill-rule:nonzero;stroke:none"
             id="path624" />
        </g>
        <g
           id="g626"
           transform="translate(749.4473,120.3262)">
          <path
             d="m 0,0 c 0,-5.387 -1.549,-9.628 -4.646,-12.726 -3.097,-3.096 -7.069,-4.645 -11.916,-4.645 -4.76,0 -8.531,1.458 -11.312,4.376 -2.784,2.916 -4.175,6.889 -4.175,11.918 V 43.09 H -47.804 V 1.077 c 0,-10.772 2.289,-18.92 6.867,-24.44 4.58,-5.522 11.131,-8.282 19.661,-8.282 h 0.673 c 5.656,0 10.346,1.258 14.072,3.77 3.724,2.513 6.552,6.216 8.483,11.109 0.489,1.239 0.914,2.556 1.279,3.947 V -29.49 H 15.755 V 43.09 H 0 Z"
             style="fill:#000000;fill-opacity:1;fill-rule:nonzero;stroke:none"
             id="path628" />
        </g>
        <g
           id="g630"
           transform="translate(842.6279,126.251)">
          <path
             d="m 0,0 c 0,-4.578 -0.965,-8.507 -2.895,-11.783 -1.931,-3.278 -4.533,-5.79 -7.809,-7.54 -3.278,-1.751 -6.891,-2.626 -10.84,-2.626 -4.221,0 -7.968,0.964 -11.244,2.894 -3.278,1.93 -5.858,4.714 -7.743,8.35 -1.885,3.636 -2.827,7.921 -2.827,12.859 0,4.848 0.919,9.09 2.759,12.725 1.839,3.636 4.421,6.464 7.744,8.484 3.32,2.02 7.136,3.03 11.446,3.03 3.77,0 7.271,-0.809 10.503,-2.424 3.232,-1.616 5.857,-3.973 7.877,-7.07 C -1.01,13.802 0,10.008 0,5.521 Z M 2.559,37.165 V 22.982 c -0.218,0.469 -0.434,0.939 -0.672,1.391 -2.606,4.936 -6.174,8.685 -10.706,11.244 -4.535,2.558 -9.763,3.838 -15.688,3.838 -5.117,0 -9.808,-0.899 -14.071,-2.694 -4.266,-1.797 -7.924,-4.332 -10.975,-7.608 -3.053,-3.278 -5.41,-7.116 -7.07,-11.513 -1.662,-4.4 -2.491,-9.157 -2.491,-14.274 V 0.808 c 0,-5.029 0.808,-9.763 2.424,-14.206 1.616,-4.445 3.905,-8.373 6.868,-11.784 2.962,-3.412 6.508,-6.059 10.637,-7.944 4.128,-1.886 8.707,-2.828 13.736,-2.828 5.565,0 10.524,1.212 14.88,3.636 4.352,2.423 7.854,6.013 10.503,10.772 0.071,0.128 0.131,0.265 0.201,0.395 v -6.454 c 0,-5.386 -0.875,-9.763 -2.625,-13.129 -1.75,-3.367 -4.535,-5.858 -8.349,-7.474 -3.816,-1.615 -8.866,-2.424 -15.149,-2.424 -3.143,0 -6.531,0.158 -10.166,0.472 -3.636,0.315 -7.071,0.696 -10.302,1.144 v -13.331 c 3.051,-0.448 6.329,-0.808 9.83,-1.077 3.501,-0.269 6.956,-0.404 10.369,-0.404 9.783,0 17.706,1.258 23.767,3.77 6.058,2.515 10.504,6.487 13.33,11.917 2.828,5.433 4.242,12.547 4.242,21.344 v 63.962 z"
             style="fill:#000000;fill-opacity:1;fill-rule:nonzero;stroke:none"
             id="path632" />
        </g>
        <g
           id="g634"
           transform="translate(160.1305,180.4302)">
          <path
             d="m 0,0 h 30.411 c 3.43,0 6.678,-1.9 8.064,-5.036 0.523,-1.182 0.871,-2.591 0.871,-4.249 0,-1.588 -0.196,-2.94 -0.514,-4.09 -1.005,-3.639 -4.364,-6.124 -8.14,-6.124 H 0 V -49.56 h 32.068 c 1.179,0 2.349,-0.315 3.32,-0.985 1.746,-1.203 3.958,-3.78 3.958,-9.112 0,-4.12 -1.567,-6.297 -3.134,-7.443 -1.193,-0.873 -2.673,-1.262 -4.152,-1.262 H 0 v -18.57 c 0,0 0.58,-6.442 -6.442,-6.442 h -44.189 c -3.987,0 -7.943,0.627 -11.732,1.867 -7.645,2.504 -20.028,7.268 -23.177,12.699 v -76.37 h 64.799 c 2.635,0 5.256,0.305 7.818,0.923 19.486,4.702 99.268,29.276 99.268,116.46 0,0 8.934,104.714 -108.246,128.4 0,0 -85.185,9.973 -123.829,-64.823 0,0 -12.882,-22.855 -12.882,-43.631 v -162.058 h 19.164 c 6.537,0 13.022,1.508 18.755,4.648 7.215,3.953 14.854,10.934 14.854,22.777 v 123.829 c 0,0 -1.861,35.736 39.514,51.187 4.377,1.635 9.031,2.417 13.703,2.417 h 45.68 c 0,0 7.202,0.243 7.202,-7.203 C 0.26,8.467 0,0 0,0"
             style="fill:#f63324;fill-opacity:1;fill-rule:nonzero;stroke:none"
             id="path636" />
        </g>
        <g
           id="g638"
           transform="translate(140.2016,186.2155)">
          <path
             d="m 0,0 v -78.794 h -32.678 c -17.562,0 -33.758,20.582 -33.758,36.754 0,18.627 13.483,42.04 33.758,42.04 z"
             style="fill:#f63324;fill-opacity:1;fill-rule:nonzero;stroke:none"
             id="path640" />
        </g>
      </g>
    </g>
  </g>
</svg>
