<?xml version="1.0" encoding="UTF-8" standalone="no"?>
<!-- Created with Inkscape (http://www.inkscape.org/) -->

<svg
   version="1.1"
   id="svg358"
   width="810.84344"
   height="390.05585"
   viewBox="0 0 810.84344 390.05585"
   sodipodi:docname="red plug.svg"
   inkscape:version="1.2.2 (b0a84865, 2022-12-01)"
   xmlns:inkscape="http://www.inkscape.org/namespaces/inkscape"
   xmlns:sodipodi="http://sodipodi.sourceforge.net/DTD/sodipodi-0.dtd"
   xmlns="http://www.w3.org/2000/svg"
   xmlns:svg="http://www.w3.org/2000/svg">
  <defs
     id="defs362">
    <clipPath
       clipPathUnits="userSpaceOnUse"
       id="clipPath374">
      <path
         d="M 0,500 H 720 V 0 H 0 Z"
         id="path372" />
    </clipPath>
  </defs>
  <sodipodi:namedview
     id="namedview360"
     pagecolor="#505050"
     bordercolor="#ffffff"
     borderopacity="1"
     inkscape:showpageshadow="0"
     inkscape:pageopacity="0"
     inkscape:pagecheckerboard="1"
     inkscape:deskcolor="#505050"
     showgrid="false"
     inkscape:zoom="0.35399999"
     inkscape:cx="406.77967"
     inkscape:cy="194.91526"
     inkscape:window-width="1419"
     inkscape:window-height="456"
     inkscape:window-x="0"
     inkscape:window-y="25"
     inkscape:window-maximized="0"
     inkscape:current-layer="g366">
    <inkscape:page
       x="0"
       y="0"
       id="page364"
       width="810.84344"
       height="390.05585" />
  </sodipodi:namedview>
  <g
     id="g366"
     inkscape:groupmode="layer"
     inkscape:label="Page 1"
     transform="matrix(1.3333333,0,0,-1.3333333,-74.578265,528.36103)">
    <g
       id="g368">
      <g
         id="g370"
         clip-path="url(#clipPath374)">
        <g
           id="g376"
           transform="translate(208.6167,308.6273)">
          <path
             d="m 0,0 h 29.274 c 3.302,0 6.428,-1.829 7.763,-4.848 0.503,-1.137 0.838,-2.494 0.838,-4.09 0,-1.528 -0.189,-2.83 -0.494,-3.937 -0.968,-3.503 -4.202,-5.895 -7.836,-5.895 H 0 v -28.937 h 30.869 c 1.135,0 2.261,-0.304 3.196,-0.948 1.68,-1.159 3.81,-3.639 3.81,-8.772 0,-3.966 -1.508,-6.061 -3.017,-7.164 -1.148,-0.841 -2.573,-1.215 -3.996,-1.215 H 0 v -17.877 c 0,0 0.559,-6.2 -6.201,-6.2 h -42.537 c -3.838,0 -7.647,0.603 -11.294,1.797 -7.359,2.41 -19.279,6.996 -22.31,12.224 v -73.515 h 62.376 c 2.537,0 5.06,0.294 7.526,0.889 18.758,4.526 95.557,28.181 95.557,112.106 0,0 8.6,100.8 -104.2,123.6 0,0 -82,9.6 -119.2,-62.4 0,0 -12.4,-22 -12.4,-42 v -156 h 18.448 c 6.292,0 12.535,1.451 18.053,4.475 6.946,3.805 14.299,10.525 14.299,21.925 v 119.2 c 0,0 -1.791,34.4 38.037,49.274 4.214,1.574 8.693,2.326 13.191,2.326 h 43.972 c 0,0 6.934,0.234 6.934,-6.933 C 0.251,8.15 0,0 0,0"
             style="fill:#f63324;fill-opacity:1;fill-rule:nonzero;stroke:none"
             id="path378" />
        </g>
        <g
           id="g380"
           transform="translate(189.4328,314.1963)">
          <path
             d="m 0,0 v -75.848 h -31.456 c -16.906,0 -32.497,19.812 -32.497,35.38 0,17.93 12.979,40.468 32.497,40.468 z"
             style="fill:#f63324;fill-opacity:1;fill-rule:nonzero;stroke:none"
             id="path382" />
        </g>
        <g
           id="g384"
           transform="translate(367.741,376.9984)">
          <path
             d="m 0,0 h 23.606 c 4.48,0 8.337,-0.938 11.569,-2.814 3.229,-1.876 5.706,-4.431 7.426,-7.661 1.719,-3.231 2.579,-6.932 2.579,-11.099 0,-4.275 -0.86,-8.027 -2.579,-11.256 -1.72,-3.232 -4.197,-5.76 -7.426,-7.582 -3.232,-1.825 -7.089,-2.736 -11.569,-2.736 H 0 Z m 73.632,-98.646 -31.889,42.831 c 0.714,0.249 1.421,0.506 2.108,0.786 6.41,2.604 11.412,6.566 15.008,11.881 3.596,5.315 5.393,12.14 5.393,20.48 v 2.501 c 0,8.337 -1.773,15.164 -5.315,20.479 -3.544,5.316 -8.547,9.302 -15.008,11.96 -6.463,2.658 -14.07,3.986 -22.824,3.986 H 0 -6.097 -18.76 V -98.646 H 0 v 39.708 h 21.105 c 0.493,0 0.968,0.02 1.453,0.028 l 28.719,-39.736 z"
             style="fill:#000000;fill-opacity:1;fill-rule:nonzero;stroke:none"
             id="path386" />
        </g>
        <g
           id="g388"
           transform="translate(478.7366,346.2006)">
          <path
             d="m 0,0 c 3.647,2.501 8.181,3.752 13.602,3.752 5.21,0 9.536,-1.121 12.975,-3.361 3.439,-2.243 6.043,-5.42 7.817,-9.537 1.077,-2.507 1.823,-5.297 2.245,-8.363 h -46.768 c 0.443,2.594 1.109,4.992 2,7.191 C -6.358,-5.94 -3.649,-2.501 0,0 m 54.404,-22.512 c 0,7.294 -1.512,14.095 -4.534,20.402 -3.023,6.304 -7.557,11.436 -13.6,15.399 -6.046,3.959 -13.602,5.94 -22.668,5.94 -6.985,0 -13.108,-1.226 -18.37,-3.674 -5.264,-2.45 -9.615,-5.733 -13.053,-9.849 -3.44,-4.118 -6.02,-8.754 -7.74,-13.914 -1.718,-5.158 -2.579,-10.5 -2.579,-16.023 v -2.971 c 0,-5.42 0.861,-10.709 2.579,-15.867 1.72,-5.16 4.3,-9.798 7.74,-13.914 3.438,-4.119 7.867,-7.426 13.288,-9.927 5.418,-2.502 11.776,-3.752 19.072,-3.752 6.773,0 12.819,1.148 18.135,3.439 5.315,2.291 9.717,5.575 13.21,9.849 3.49,4.272 5.808,9.275 6.957,15.008 h -17.04 c -0.836,-3.439 -3.127,-6.436 -6.879,-8.989 -3.752,-2.555 -8.547,-3.83 -14.383,-3.83 -5.838,0 -10.631,1.275 -14.383,3.83 -3.752,2.553 -6.514,6.043 -8.285,10.474 -1.335,3.334 -2.165,7.008 -2.495,11.022 h 65.028 z"
             style="fill:#000000;fill-opacity:1;fill-rule:nonzero;stroke:none"
             id="path390" />
        </g>
        <g
           id="g392"
           transform="translate(616.7776,317.7484)">
          <path
             d="m 0,0 c 0,-5.42 -1.173,-10.137 -3.518,-14.148 -2.344,-4.014 -5.42,-7.062 -9.223,-9.146 -3.806,-2.086 -8.051,-3.126 -12.741,-3.126 -5.003,0 -9.486,1.172 -13.445,3.517 -3.962,2.345 -7.062,5.706 -9.302,10.084 -2.242,4.377 -3.361,9.536 -3.361,15.476 0,5.836 1.095,10.944 3.283,15.321 2.189,4.377 5.238,7.79 9.146,10.24 3.908,2.448 8.415,3.674 13.522,3.674 4.585,0 8.806,-0.992 12.663,-2.971 3.855,-1.981 6.982,-4.846 9.38,-8.598 C -1.199,16.571 0,12.038 0,6.722 Z M -0.626,74.727 V 32.411 c -3.036,4.828 -6.86,8.491 -11.49,10.971 -5.159,2.76 -10.97,4.143 -17.431,4.143 -6.046,0 -11.544,-1.121 -16.493,-3.361 -4.951,-2.243 -9.199,-5.342 -12.741,-9.302 -3.544,-3.962 -6.281,-8.574 -8.207,-13.836 -1.93,-5.263 -2.893,-10.919 -2.893,-16.962 v -2.97 c 0,-6.151 0.989,-11.83 2.971,-17.04 1.978,-5.213 4.819,-9.798 8.519,-13.758 3.699,-3.962 8.025,-7.034 12.976,-9.223 4.949,-2.189 10.447,-3.283 16.493,-3.283 6.357,0 12.194,1.382 17.51,4.143 5.315,2.76 9.665,7.059 13.054,12.897 0.538,0.928 1.023,1.912 1.484,2.921 V -39.396 H 17.665 V 74.727 Z"
             style="fill:#000000;fill-opacity:1;fill-rule:nonzero;stroke:none"
             id="path394" />
        </g>
        <g
           id="g396"
           transform="translate(408.3875,201.3593)">
          <path
             d="m 0,0 c -1.773,-3.388 -4.299,-6.046 -7.582,-7.973 -3.283,-1.929 -7.426,-2.892 -12.429,-2.892 h -20.635 v 44.711 h 20.635 c 5.003,0 9.146,-0.938 12.429,-2.814 C -4.299,29.156 -1.773,26.522 0,23.137 1.771,19.749 2.658,15.867 2.658,11.49 2.658,7.216 1.771,3.386 0,0 m 16.649,32.674 c -3.388,5.574 -8.339,9.899 -14.851,12.975 -6.515,3.073 -14.515,4.612 -23.997,4.612 h -18.447 -3.127 -15.633 V -64.644 h 18.76 v 37.364 h 18.447 c 9.482,0 17.482,1.537 23.997,4.612 6.512,3.072 11.463,7.426 14.851,13.054 3.386,5.628 5.081,12.245 5.081,19.853 v 2.502 c 0,7.711 -1.695,14.356 -5.081,19.933"
             style="fill:#000000;fill-opacity:1;fill-rule:nonzero;stroke:none"
             id="path398" />
        </g>
        <g
           id="g400"
           transform="translate(449.5012,250.8387)">
          <path
             d="M 0,0 H -11.1 V -14.07 H 0 V -114.123 H 18.447 V -14.07 0 Z"
             style="fill:#000000;fill-opacity:1;fill-rule:nonzero;stroke:none"
             id="path402" />
        </g>
        <g
           id="g404"
           transform="translate(542.1107,220.9794)">
          <path
             d="m 0,0 v -50.027 c 0,-6.253 -1.798,-11.178 -5.394,-14.773 -3.595,-3.596 -8.207,-5.393 -13.835,-5.393 -5.525,0 -9.903,1.692 -13.131,5.08 -3.232,3.385 -4.847,7.998 -4.847,13.836 V 0 h -18.291 v -48.776 c 0,-12.507 2.658,-21.965 7.974,-28.374 5.314,-6.411 12.921,-9.615 22.824,-9.615 h 0.781 c 6.566,0 12.011,1.46 16.337,4.377 4.323,2.917 7.606,7.216 9.849,12.898 0.567,1.438 1.061,2.967 1.485,4.582 V -84.264 H 18.291 V 0 Z"
             style="fill:#000000;fill-opacity:1;fill-rule:nonzero;stroke:none"
             id="path406" />
        </g>
        <g
           id="g408"
           transform="translate(646.5563,177.8309)">
          <path
             d="m 0,0 c 0,-5.315 -1.121,-9.876 -3.361,-13.679 -2.243,-3.805 -5.264,-6.722 -9.068,-8.755 -3.805,-2.032 -7.999,-3.048 -12.584,-3.048 -4.9,0 -9.251,1.119 -13.053,3.361 -3.806,2.24 -6.801,5.472 -8.99,9.692 -2.188,4.222 -3.283,9.198 -3.283,14.931 0,5.628 1.068,10.552 3.205,14.773 2.135,4.221 5.132,7.504 8.989,9.849 3.855,2.345 8.286,3.518 13.289,3.518 4.377,0 8.441,-0.939 12.193,-2.815 3.752,-1.876 6.801,-4.611 9.145,-8.207 C -1.173,16.024 0,11.62 0,6.41 Z M 2.971,43.148 V 26.677 c -0.254,0.546 -0.506,1.094 -0.783,1.619 -3.023,5.731 -7.167,10.084 -12.427,13.055 -5.265,2.969 -11.335,4.455 -18.213,4.455 -5.941,0 -11.388,-1.043 -16.337,-3.127 -4.951,-2.086 -9.199,-5.03 -12.741,-8.833 -3.544,-3.806 -6.281,-8.261 -8.207,-13.367 C -67.667,15.372 -68.63,9.85 -68.63,3.908 v -2.97 c 0,-5.837 0.939,-11.334 2.815,-16.493 1.876,-5.159 4.533,-9.719 7.972,-13.679 3.44,-3.962 7.555,-7.035 12.351,-9.224 4.792,-2.188 10.107,-3.282 15.945,-3.282 6.461,0 12.219,1.406 17.275,4.22 5.054,2.814 9.119,6.982 12.194,12.507 0.083,0.149 0.154,0.309 0.234,0.46 v -7.495 c 0,-6.253 -1.015,-11.334 -3.048,-15.242 -2.033,-3.908 -5.264,-6.801 -9.693,-8.677 -4.431,-1.876 -10.293,-2.814 -17.587,-2.814 -3.649,0 -7.582,0.183 -11.804,0.548 -4.22,0.366 -8.207,0.808 -11.959,1.328 v -15.477 c 3.542,-0.52 7.348,-0.937 11.413,-1.251 4.064,-0.312 8.076,-0.469 12.038,-0.469 11.358,0 20.557,1.461 27.592,4.378 7.035,2.919 12.194,7.531 15.477,13.835 3.283,6.307 4.925,14.566 4.925,24.779 v 74.258 z"
             style="fill:#000000;fill-opacity:1;fill-rule:nonzero;stroke:none"
             id="path410" />
        </g>
      </g>
    </g>
  </g>
</svg>
